<svg id="svg" version="1.1" viewBox="0 0 300 300" width="1000" height="1000" xmlns="http://www.w3.org/2000/svg"><svg xmlns="http://www.w3.org/2000/svg"><defs><clipPath id="clip-1"><rect x="0" y="0" transform="scale(0.14648,0.14648)" width="2048" height="2048" fill="none"/></clipPath></defs><g clip-path="url(#clip-1)" fill="none" fill-rule="nonzero" stroke="none" stroke-width="1" stroke-linecap="butt" stroke-linejoin="miter" stroke-miterlimit="10" stroke-dasharray="" stroke-dashoffset="0" font-family="none" font-weight="none" font-size="none" text-anchor="none" style="mix-blend-mode: normal"><path d="M192.03809,120.5458c3.06592,-0.03149 6.1333,-0.03823 9.19922,-0.02065c-0.06885,10.12529 0.15381,20.47061 -0.04102,30.5647c5.28369,-5.34844 10.34326,-10.91675 15.59619,-16.29272l10.88379,0.01113c-2.24268,2.48042 -4.71387,4.96025 -7.03564,7.38091c-2.68945,2.86143 -5.42432,5.68096 -8.20166,8.4583c2.4873,3.4834 5.81982,7.49121 8.50195,10.94238c2.37598,2.99268 4.91309,6.12305 7.16455,9.19189l-10.85889,0.01758c-2.71729,-3.76611 -5.6748,-7.40186 -8.43311,-11.14307c-0.95068,-1.28906 -1.94385,-2.59277 -2.97803,-3.81299c-1.50146,1.57178 -3.06006,3.13184 -4.58057,4.69043c-0.09082,3.30322 -0.02637,6.92871 -0.04102,10.25977c-3.06299,-0.01318 -6.12744,-0.01025 -9.19043,0.01025z" fill="#ffffff"/><path d="M73.73965,120.51899l9.45264,-0.0186l-0.01333,41.8043l21.82588,0.01318l-0.01816,8.46387l-31.18755,0.01758l-0.01963,-33.56938c0.0019,-5.50078 0.08408,-11.22407 -0.03984,-16.71094z" fill="#ffffff"/><path d="M168.14795,133.94897c0.17725,-0.00439 0.35449,-0.00688 0.53027,-0.00776c3.81006,-0.01597 6.92285,1.14404 9.646,3.84097c5.36865,5.31548 4.26855,13.23589 4.22168,20.32134c-2.63965,-1.59814 -5.78027,-1.32422 -6.49512,2.09619c-0.22998,1.11182 0.01318,2.26904 0.6709,3.19336c1.47656,2.11084 3.95508,1.96436 5.84619,0.49512l0.02783,6.90088l-9.1626,0.01465l-0.00146,-6.49951c-2.37012,1.17334 -5.05078,2.34668 -7.4751,3.47607l-0.02051,0.16992c-0.43359,3.70166 -4.14404,4.09277 -5.04346,1.48389c-0.25928,-0.76465 -0.19189,-1.60107 0.18604,-2.31445c1.01221,-1.94092 2.85205,-1.32275 4.32129,-0.4292c0.59619,-0.30029 1.21875,-0.58887 1.82373,-0.87598c1.94678,-0.82031 4.25977,-1.979 6.20801,-2.88867c-0.03223,-4.06201 0.57129,-14.3291 -0.68408,-17.46123c-0.66211,-1.65337 -1.85889,-3.06357 -3.5332,-3.74341c-2.03467,-0.82559 -4.41064,-0.62373 -6.40869,0.20786c-3.33838,1.38999 -4.87939,4.24775 -6.20947,7.41914c-0.02637,-0.03809 -0.05273,-0.07471 -0.07764,-0.11133l-0.1333,-0.18311c-1.74316,-2.43604 -3.62402,-1.9585 -4.89551,0.54492c-1.40918,-1.03564 -2.87109,-2.2793 -4.20703,-3.40972c-0.0293,-3.78721 -0.0293,-7.57456 0,-11.36177c2.90479,-0.02974 5.81104,-0.03398 8.71582,-0.01289l-0.01025,5.95591c0.39697,-0.49087 0.80127,-0.97471 1.21436,-1.45122c3.01611,-3.41279 6.4292,-5.07349 10.94531,-5.36997z" fill="#ffffff"/><path d="M120.90205,159.14063c3.53276,-0.33545 6.23481,0.53613 9.40679,1.88818c-1.22988,3.20801 -2.78481,6.81445 -4.14375,10.02686c-1.3541,3.20068 -2.97114,7.86475 -4.90078,10.59521c-1.83516,2.59717 -4.47041,3.2666 -7.44888,3.63867c-1.95161,0.04248 -4.05527,-0.00439 -6.0189,-0.01465l-0.0416,-7.01367c8.16445,0.16699 7.58423,-1.39746 10.53457,-8.45361c-1.26592,-2.82275 -2.76812,-6.01611 -3.8959,-8.86816c2.13076,-1.13086 4.13496,-1.58203 6.50845,-1.79883z" fill="#ffffff"/><path d="M102.57363,134.83726c2.971,-0.10635 6.24053,-0.03501 9.22896,-0.02197l9.10986,21.15396l-1.92466,0.26807c-2.30786,0.39404 -3.9189,1.03857 -6.04146,1.91602l-7.09775,-15.80933c-0.68833,-1.53149 -2.86641,-6.09609 -3.27495,-7.50674z" fill="#ffffff"/><path d="M132.67104,134.7958l9.13784,0.02637c-3.18984,7.44023 -6.42656,14.85996 -9.71016,22.25889c-0.55034,1.28027 -0.44912,1.19678 -1.68267,0.70752c-2.20078,-0.87451 -4.31836,-1.50879 -6.69229,-1.68018c2.9042,-6.94922 6.27979,-14.33379 8.94727,-21.3126z" fill="#ffffff"/><path d="M156.14209,151.7915c0.17578,0.40869 0.07471,17.13281 0.08203,19.00342l-8.81836,-0.00879c-0.16406,-0.24756 -0.31641,-5.42139 -0.02637,-5.97363c1.70801,-3.25488 4.2832,-8.81396 6.2959,-12.03516c-0.0498,0.0791 1.62891,-0.43652 2.3042,-0.87891z" fill="#ffffff"/><path d="M163.89844,149.48438c2.09766,-0.45703 4.16895,0.87598 4.62305,2.9751c0.4541,2.09766 -0.88037,4.16748 -2.97949,4.62012c-2.09619,0.45117 -4.16309,-0.88037 -4.61572,-2.97656c-0.4541,-2.09619 0.87598,-4.16455 2.97217,-4.61865z" fill="#ffffff"/><path d="M147.31641,148.76514c1.65674,1.25244 2.83154,2.2749 4.604,3.46143l-2.87109,5.74658c-0.56543,1.10742 -1.0957,2.23389 -1.82227,3.2417c0.11133,-4.11475 -0.01611,-8.29395 0.08936,-12.44971z" fill="#ffffff"/><path d="M179.0625,158.6001c1.33301,-0.41016 2.74805,0.33838 3.1582,1.67285c0.41016,1.33301 -0.34131,2.74658 -1.67578,3.15527c-1.33154,0.40723 -2.74365,-0.34131 -3.15234,-1.67285c-0.40869,-1.33301 0.33838,-2.74365 1.66992,-3.15527z" fill="#ffffff"/><path d="M137.16943,160.7666c0.50903,-0.19189 1.07798,0.05859 1.2813,0.5625c0.20347,0.50391 -0.03311,1.07959 -0.53262,1.29492c-0.33384,0.14355 -0.71909,0.09521 -1.00708,-0.12744c-0.28784,-0.22119 -0.43301,-0.58154 -0.37939,-0.94043c0.05361,-0.36035 0.29766,-0.66211 0.63779,-0.78955z" fill="#ffffff"/><path d="M140.32324,168.96973c0.51738,-0.11865 1.03696,0.19189 1.17627,0.70459c0.13916,0.5127 -0.15161,1.04297 -0.65859,1.20117c-0.34541,0.1084 -0.72231,0.01904 -0.98232,-0.23291c-0.26016,-0.25195 -0.36167,-0.62549 -0.2647,-0.97412c0.09683,-0.34863 0.37661,-0.6167 0.72935,-0.69873z" fill="#ffffff"/></g></svg></svg>